<svg width="32" height="32" viewBox="0 0 32 32" fill="none" xmlns="http://www.w3.org/2000/svg">
  <!-- Background gradient circle -->
  <circle cx="16" cy="16" r="16" fill="url(#gradient)" />
  
  <!-- Note/Document icon -->
  <path d="M9 6C9 5.44772 9.44772 5 10 5H18L23 10V24C23 24.5523 22.5523 25 22 25H10C9.44772 25 9 24.5523 9 24V6Z" fill="white" fill-opacity="0.95"/>
  
  <!-- Folded corner -->
  <path d="M18 5V9C18 9.55228 18.4477 10 19 10H23L18 5Z" fill="white" fill-opacity="0.7"/>
  
  <!-- Text lines -->
  <rect x="12" y="13" width="8" height="1" rx="0.5" fill="url(#textGradient)" fill-opacity="0.8"/>
  <rect x="12" y="16" width="6" height="1" rx="0.5" fill="url(#textGradient)" fill-opacity="0.6"/>
  <rect x="12" y="19" width="7" height="1" rx="0.5" fill="url(#textGradient)" fill-opacity="0.7"/>
  
  <!-- Sparkle elements -->
  <circle cx="6" cy="8" r="1" fill="#fbbf24" opacity="0.8"/>
  <circle cx="26" cy="12" r="0.8" fill="#f59e0b" opacity="0.9"/>
  <circle cx="4" cy="24" r="0.6" fill="#fbbf24" opacity="0.7"/>
  <circle cx="27" cy="26" r="0.7" fill="#f59e0b" opacity="0.8"/>
  
  <!-- Small sparkle dots -->
  <circle cx="8" cy="4" r="0.4" fill="#fbbf24" opacity="0.6"/>
  <circle cx="24" cy="6" r="0.5" fill="#f59e0b" opacity="0.7"/>
  <circle cx="2" cy="16" r="0.3" fill="#fbbf24" opacity="0.5"/>
  <circle cx="29" cy="20" r="0.4" fill="#f59e0b" opacity="0.6"/>
  
  <defs>
    <linearGradient id="gradient" x1="0%" y1="0%" x2="100%" y2="100%">
      <stop offset="0%" style="stop-color:#8b5cf6;stop-opacity:1" />
      <stop offset="50%" style="stop-color:#a855f7;stop-opacity:1" />
      <stop offset="100%" style="stop-color:#ec4899;stop-opacity:1" />
    </linearGradient>
    <linearGradient id="textGradient" x1="0%" y1="0%" x2="100%" y2="0%">
      <stop offset="0%" style="stop-color:#8b5cf6;stop-opacity:1" />
      <stop offset="100%" style="stop-color:#ec4899;stop-opacity:1" />
    </linearGradient>
  </defs>
</svg>
